<svg width="6" height="10" viewBox="0 0 6 10" fill="none" xmlns="http://www.w3.org/2000/svg">
<path fill-rule="evenodd" clip-rule="evenodd" d="M5.93782 2.9375C5.81347 3.0625 5.68912 3.0625 5.56477 2.9375L3.26425 0.84375V9.75C3.26425 9.91667 3.18135 10 3.01554 10C2.84974 10 2.76684 9.91667 2.76684 9.75V0.84375L0.466322 2.9375C0.341969 3.0625 0.217618 3.0625 0.0932647 2.9375C-0.0310882 2.8125 -0.0310882 2.6875 0.0932647 2.5625C1.89638 0.916658 2.80829 0.0833334 2.82902 0.0625C2.87047 0.0208331 2.93264 0 3.01554 0C3.09845 0 3.16062 0.0208331 3.20207 0.0625L5.93782 2.5625C5.97927 2.60417 6 2.66667 6 2.75C6 2.83333 5.97927 2.89583 5.93782 2.9375Z" fill="#B8E986"/>
</svg>
