<svg width="6" height="10" viewBox="0 0 6 10" fill="none" xmlns="http://www.w3.org/2000/svg">
<path fill-rule="evenodd" clip-rule="evenodd" d="M5.93782 7.20937C5.97927 7.24896 6 7.30833 6 7.3875C6 7.46667 5.97927 7.52604 5.93782 7.56563C4.13471 9.12918 3.2228 9.92083 3.20207 9.94063C3.16062 9.98021 3.09845 10 3.01554 10C2.93264 10 2.87047 9.98021 2.82902 9.94063L0.0932647 7.56563C-0.0310882 7.44687 -0.0310882 7.32813 0.0932647 7.20937C0.217618 7.09062 0.341969 7.09062 0.466322 7.20937L2.76684 9.19844V0.7375C2.76684 0.579166 2.84974 0.5 3.01554 0.5C3.18135 0.5 3.26425 0.579166 3.26425 0.7375V9.19844L5.56477 7.20937C5.68912 7.09062 5.81347 7.09062 5.93782 7.20937Z" fill="#FF729A"/>
</svg>
