<svg width="20px" height="12px" viewBox="0 0 20 12" version="1.1" xmlns="http://www.w3.org/2000/svg" xmlns:xlink="http://www.w3.org/1999/xlink">
    <defs>
        <linearGradient x1="0%" y1="100%" x2="100%" y2="0%" id="linearGradient-1">
            <stop stop-color="#6673B4" offset="0%"></stop>
            <stop stop-color="#9EAEFF" offset="100%"></stop>
        </linearGradient>
    </defs>
    <g id="Symbols" stroke="none" stroke-width="1" fill="none" fill-rule="evenodd">
        <g id="ic-arr-b" transform="translate(0.000000, 1.000000)" fill="url(#linearGradient-1)">
            <path d="M9.47671785,14.7601199 C9.62068966,14.916042 9.81449786,15 10.0027687,15 C10.1910395,15 10.3848477,14.922039 10.5288195,14.7601199 L15.2798893,9.61469265 C15.5733702,9.29685157 15.5733702,8.78710645 15.2798893,8.46926537 C14.9864083,8.15142429 14.5157312,8.15142429 14.2222502,8.46926537 L10.7503146,12.2353823 L10.7503146,-4.1904048 C10.7503146,-4.64017991 10.418072,-5 10.0027687,-5 C9.58746539,-5 9.25522275,-4.64017991 9.25522275,-4.1904048 L9.25522275,12.2353823 L5.77774981,8.46926537 C5.48426881,8.15142429 5.01359174,8.15142429 4.72011075,8.46926537 C4.42662975,8.78710645 4.42662975,9.29685157 4.72011075,9.61469265 L9.47671785,14.7601199 Z" id="Path" transform="translate(10.000000, 5.000000) rotate(90.000000) translate(-10.000000, -5.000000) "></path>
        </g>
    </g>
</svg>