<svg width="27px" height="20px" viewBox="0 0 27 20" version="1.1" xmlns="http://www.w3.org/2000/svg" xmlns:xlink="http://www.w3.org/1999/xlink">
    <desc>Created with sketchtool.</desc>
    <defs>
        <linearGradient x1="0%" y1="100%" x2="100%" y2="0%" id="linearGradient-1">
            <stop stop-color="#6673B4" offset="0%"></stop>
            <stop stop-color="#9EAEFF" offset="100%"></stop>
        </linearGradient>
    </defs>
    <g id="Symbols" stroke="none" stroke-width="1" fill="none" fill-rule="evenodd">
        <g id="ic-card" fill="url(#linearGradient-1)">
            <path d="M25.3125,0 C25.7946453,0 26.196427,0.166665 26.5178571,0.5 C26.8392873,0.833335 27,1.2499975 27,1.75 L27,18.25 C27,18.7500025 26.8392873,19.166665 26.5178571,19.5 C26.196427,19.833335 25.7946453,20 25.3125,20 L1.6875,20 C1.20535473,20 0.803573036,19.833335 0.482142857,19.5 C0.160712679,19.166665 0,18.7500025 0,18.25 L0,1.75 C0,1.2499975 0.160712679,0.833335 0.482142857,0.5 C0.803573036,0.166665 1.20535473,0 1.6875,0 L25.3125,0 Z M2.23889803,1.42857143 C1.77754704,1.42857143 1.50493463,1.78571071 1.42105263,2.5 L1.42105263,4.28571429 L25.5789474,4.28571429 L25.5789474,2.5 C25.4950654,1.78571071 25.222453,1.42857143 24.761102,1.42857143 L2.23889803,1.42857143 Z M24.761102,18.5714286 C25.222453,18.5714286 25.4950654,18.2589317 25.5789474,17.6339286 L25.5789474,8.57142857 L1.42105263,8.57142857 L1.42105263,17.6339286 C1.50493463,18.2589317 1.77754704,18.5714286 2.23889803,18.5714286 L24.761102,18.5714286 Z" id="card"></path>
        </g>
    </g>
</svg>