<svg width="10px" height="10px" viewBox="0 0 10 10" version="1.1" xmlns="http://www.w3.org/2000/svg" xmlns:xlink="http://www.w3.org/1999/xlink">
    <defs>
        <linearGradient x1="0%" y1="100%" x2="100%" y2="0%" id="linearGradient-1">
            <stop stop-color="#6673B4" offset="0%"></stop>
            <stop stop-color="#9EAEFF" offset="100%"></stop>
        </linearGradient>
    </defs>
    <g id="Symbols" stroke="none" stroke-width="1" fill="none" fill-rule="evenodd">
        <g id="ic-close" fill="url(#linearGradient-1)">
            <path d="M9.81711525,0.182863715 C9.57326892,-0.0609545716 9.18219462,-0.0609545716 8.93834829,0.182863715 L5,4.12075906 L1.06165171,0.182863715 C0.817805383,-0.0609545716 0.426731079,-0.0609545716 0.182884748,0.182863715 C-0.0609615827,0.426682001 -0.0609615827,0.817711328 0.182884748,1.06152961 L4.12123303,4.99942496 L0.182884748,8.9373203 C-0.0609615827,9.18113859 -0.0609615827,9.57216791 0.182884748,9.8159862 C0.302507476,9.93559517 0.463538072,10 0.619967794,10 C0.776397516,10 0.937428111,9.94019551 1.05705084,9.8159862 L4.99539913,5.87809086 L8.93374741,9.8159862 C9.05337014,9.93559517 9.21440074,10 9.37083046,10 C9.53186105,10 9.68829078,9.94019551 9.8079135,9.8159862 C10.0517598,9.57216791 10.0517598,9.18113859 9.8079135,8.9373203 L5.87876697,4.99942496 L9.81711525,1.06152961 C10.0609616,0.817711328 10.0609616,0.426682001 9.81711525,0.182863715 Z" id="Path"></path>
        </g>
    </g>
</svg>