<svg width="6" height="10" viewBox="0 0 6 10" fill="none" xmlns="http://www.w3.org/2000/svg">
<path fill-rule="evenodd" clip-rule="evenodd" d="M5.93782 2.79063C5.97927 2.75104 6 2.69167 6 2.6125C6 2.53333 5.97927 2.47396 5.93782 2.43437C4.13471 0.870825 3.2228 0.0791664 3.20207 0.0593748C3.16062 0.0197916 3.09845 0 3.01554 0C2.93264 0 2.87047 0.0197916 2.82902 0.0593748L0.0932647 2.43437C-0.0310882 2.55313 -0.0310882 2.67187 0.0932647 2.79063C0.217618 2.90938 0.341969 2.90938 0.466322 2.79063L2.76684 0.801562V9.2625C2.76684 9.42083 2.84974 9.5 3.01554 9.5C3.18135 9.5 3.26425 9.42083 3.26425 9.2625V0.801562L5.56477 2.79063C5.68912 2.90938 5.81347 2.90938 5.93782 2.79063Z" fill="#D0D8FF"/>
</svg>
