<?xml version="1.0" encoding="UTF-8"?>
<svg width="20px" height="20px" viewBox="0 0 20 20" version="1.1" xmlns="http://www.w3.org/2000/svg" xmlns:xlink="http://www.w3.org/1999/xlink">
    <!-- Generator: sketchtool 52.6 (67491) - http://www.bohemiancoding.com/sketch -->
    <title>25C8BA85-A978-4F21-8C00-961640DEAD33</title>
    <desc>Created with sketchtool.</desc>
    <defs>
        <linearGradient x1="0%" y1="100%" x2="100%" y2="0%" id="linearGradient-1">
            <stop stop-color="#6673B4" offset="0%"></stop>
            <stop stop-color="#9EAEFF" offset="100%"></stop>
        </linearGradient>
    </defs>
    <g id="Symbols" stroke="none" stroke-width="1" fill="none" fill-rule="evenodd">
        <g id="ic-edit" fill="url(#linearGradient-1)">
            <path d="M10,20 C4.4771525,20 0,15.5228475 0,10 C0,4.4771525 4.4771525,0 10,0 C15.5228475,0 20,4.4771525 20,10 C20,15.5228475 15.5228475,20 10,20 Z M13.4944849,8.51208637 L11.4879136,6.50551515 L5.89180943,12.0793241 L7.92067589,14.1081906 L13.4944849,8.51208637 Z M14.8099038,6.26026755 L13.7397324,5.19009623 C13.6059604,5.05632415 13.4424636,4.99315494 13.2492373,5.00058673 C13.0560109,5.00801851 12.8850825,5.08605105 12.7364468,5.2346867 L11.7331612,6.23797232 L13.7620277,8.26683878 L14.7653133,7.26355316 C14.9139489,7.11491752 14.9919815,6.94398908 14.9994133,6.75076274 C15.0068451,6.5575364 14.9436759,6.39403964 14.8099038,6.26026755 Z M5.71344755,12.3914574 L5,15 L7.60854259,14.2865525 L5.71344755,12.3914574 Z" id="Combined-Shape"></path>
        </g>
    </g>
</svg>