<svg width="6" height="10" viewBox="0 0 6 10" fill="none" xmlns="http://www.w3.org/2000/svg">
<path fill-rule="evenodd" clip-rule="evenodd" d="M5.93782 6.70937C5.97927 6.74896 6 6.80833 6 6.8875C6 6.96667 5.97927 7.02604 5.93782 7.06563C4.13471 8.62918 3.2228 9.42083 3.20207 9.44063C3.16062 9.48021 3.09845 9.5 3.01554 9.5C2.93264 9.5 2.87047 9.48021 2.82902 9.44063L0.0932647 7.06563C-0.0310882 6.94687 -0.0310882 6.82813 0.0932647 6.70937C0.217618 6.59062 0.341969 6.59062 0.466322 6.70937L2.76684 8.69844V0.2375C2.76684 0.0791659 2.84974 0 3.01554 0C3.18135 0 3.26425 0.0791659 3.26425 0.2375V8.69844L5.56477 6.70937C5.68912 6.59062 5.81347 6.59062 5.93782 6.70937Z" fill="#D0D8FF"/>
</svg>
