<?xml version="1.0" encoding="UTF-8"?>
<svg width="901px" height="449px" viewBox="0 0 901 449" version="1.1" xmlns="http://www.w3.org/2000/svg" xmlns:xlink="http://www.w3.org/1999/xlink">
    <defs>
        <linearGradient x1="100%" y1="0%" x2="0%" y2="100%" id="linearGradient-1">
            <stop stop-color="#936DFF" offset="0%"></stop>
            <stop stop-color="#5F44CF" offset="100%"></stop>
        </linearGradient>
        <filter x="-1.8%" y="-4.6%" width="103.4%" height="108.5%" filterUnits="objectBoundingBox" id="filter-2">
            <feGaussianBlur stdDeviation="5" in="SourceGraphic"></feGaussianBlur>
        </filter>
        <linearGradient x1="1.88302318%" y1="103.957543%" x2="100%" y2="0%" id="linearGradient-3">
            <stop stop-color="#127DB0" offset="0%"></stop>
            <stop stop-color="#54F0FF" offset="100%"></stop>
        </linearGradient>
        <filter x="-1.8%" y="-6.1%" width="103.4%" height="113.0%" filterUnits="objectBoundingBox" id="filter-4">
            <feGaussianBlur stdDeviation="5" in="SourceGraphic"></feGaussianBlur>
        </filter>
    </defs>
    <g id="Home" stroke="none" stroke-width="1" fill="none" fill-rule="evenodd">
        <g id="home" transform="translate(0.000000, -147.000000)" stroke-width="2">
            <g id="lines" transform="translate(-10.000000, 160.000000)">
                <polyline id="Rectangle" stroke="url(#linearGradient-1)" filter="url(#filter-2)" points="-4.87890978e-17 98.0697615 17.0899757 155.484309 49.8313698 59.2191865 79.7086313 169.299736 107.631135 98.8994488 134.091283 182.67521 164.086721 146.533496 194.101433 120.063111 217.853945 80.4292276 246.80265 154.100626 275.65371 137.278135 302.018903 120.063111 328.076754 98.8640967 356.829058 165.186327 380.919553 182.749974 411.426405 63.159218 440.315833 38.9025225 467.513088 160.186 493.410967 111.672609 523.251776 233.752772 549.866552 108.743988 580.062476 63.159218 604.977957 112.341005 633.524369 77.3585668 658.745181 0 687.480702 259.089598 715.200766 402.815243 744.548709 425 773.090144 352.229913 802.704001 325.219321 831.517194 240.79395 860.003769 139.091416 900 139.091416"></polyline>
                <polyline id="Rectangle" stroke="url(#linearGradient-3)" filter="url(#filter-4)" points="0 147.368969 18.9955157 84.5469059 50.0403587 166.993592 78.3668283 124.90379 108.140389 111.87408 141.065715 126.819995 164.7713 162.898222 190.282067 162.898222 215.341724 110.606566 247.977828 76.7980266 276.802691 111.87408 303.240031 161.403143 329.443946 73.9140592 357.876758 99.5558119 386.134529 143.678273 412.140209 114.117339 442.150224 60 468.939907 104.784715 495.466368 187.335741 524.246512 140.644903 552.156951 173.086683 578.755302 183.781775 635.882011 99.7613259 661.488789 162.95826 689.470575 115.002138 718.179372 195.515218 748.323507 340 773.384174 244.870889 806.660667 164.225986 834.26009 298.251608 863.640209 298.251608 895 228.369284 900.000223 228.369284"></polyline>
                <polyline id="Rectangle" stroke="url(#linearGradient-1)" points="-4.87890978e-17 98.0697615 17.0899757 155.484309 49.8313698 59.2191865 79.7086313 169.299736 107.631135 98.8994488 134.091283 182.67521 164.086721 146.533496 194.101433 120.063111 217.853945 80.4292276 246.80265 154.100626 275.65371 137.278135 302.018903 120.063111 328.076754 98.8640967 356.829058 165.186327 380.919553 182.749974 411.426405 63.159218 440.315833 38.9025225 467.513088 160.186 493.410967 111.672609 523.251776 233.752772 549.866552 108.743988 580.062476 63.159218 604.977957 112.341005 633.524369 77.3585668 658.745181 0 687.480702 259.089598 715.200766 402.815243 744.548709 425 773.090144 352.229913 802.704001 325.219321 831.517194 240.79395 860.003769 139.091416 900 139.091416"></polyline>
                <polyline id="Rectangle" stroke="url(#linearGradient-3)" points="0 147.368969 18.9955157 84.5469059 50.0403587 166.993592 78.3668283 124.90379 108.140389 111.87408 141.065715 126.819995 164.7713 162.898222 190.282067 162.898222 215.341724 110.606566 247.977828 76.7980266 276.802691 111.87408 303.240031 161.403143 329.443946 73.9140592 357.876758 99.5558119 386.134529 143.678273 412.140209 114.117339 442.150224 60 468.939907 104.784715 495.466368 187.335741 524.246512 140.644903 552.156951 173.086683 578.755302 183.781775 635.882011 99.7613259 661.488789 162.95826 689.470575 115.002138 718.179372 195.515218 748.323507 340 773.384174 244.870889 806.660667 164.225986 834.26009 298.251608 863.640209 298.251608 895 228.369284 900.000223 228.369284"></polyline>
            </g>
        </g>
    </g>
</svg>