<svg width="25px" height="25px" viewBox="0 0 25 25" version="1.1" xmlns="http://www.w3.org/2000/svg" xmlns:xlink="http://www.w3.org/1999/xlink">
    <desc>Created with sketchtool.</desc>
    <defs>
        <linearGradient x1="0%" y1="100%" x2="100%" y2="0%" id="linearGradient-1">
            <stop stop-color="#6673B4" offset="0%"></stop>
            <stop stop-color="#9EAEFF" offset="100%"></stop>
        </linearGradient>
    </defs>
    <g id="Symbols" stroke="none" stroke-width="1" fill="none" fill-rule="evenodd">
        <g id="ic-btn-expand-m">
            <rect id="Rectangle" fill-opacity="0.5" fill="#1E2549" x="3" y="3" width="20" height="20" rx="10"></rect>
            <path d="M12.5,25 C19.4035594,25 25,19.4035594 25,12.5 C25,5.59644063 19.4035594,0 12.5,0 C5.59644063,0 0,5.59644063 0,12.5 C0,19.4035594 5.59644063,25 12.5,25 Z M17.5,7.5 L12.5,7.5 L12.5,6.5 L18.5,6.5 L18.5,12.5 L17.5,12.5 L17.5,7.5 Z M7.5,17.5 L12.5,17.5 L12.5,18.5 L6.5,18.5 L6.5,12.5 L7.5,12.5 L7.5,17.5 Z" id="Combined-Shape" fill="url(#linearGradient-1)"></path>
        </g>
    </g>
</svg>