<svg width="21px" height="21px" viewBox="0 0 21 21" version="1.1" xmlns="http://www.w3.org/2000/svg" xmlns:xlink="http://www.w3.org/1999/xlink">
    <defs>
        <linearGradient x1="0%" y1="100%" x2="100%" y2="0%" id="linearGradient-1">
            <stop stop-color="#6673B4" offset="0%"></stop>
            <stop stop-color="#9EAEFF" offset="100%"></stop>
        </linearGradient>
    </defs>
    <g id="Symbols" stroke="none" stroke-width="1" fill="none" fill-rule="evenodd">
        <g id="ic-gear" fill="url(#linearGradient-1)" fill-rule="nonzero">
            <path d="M10.5,15.0504641 C11.1035221,15.0504641 11.6890341,14.933452 12.233464,14.7089286 C13.3519938,14.247646 14.247646,13.3519938 14.7089286,12.233464 C14.933452,11.6890341 15.0504641,11.1035221 15.0504641,10.5 C15.0504641,9.89647787 14.933452,9.31096594 14.7089286,8.76653598 C14.247646,7.64800624 13.3519938,6.752354 12.233464,6.29107138 C11.6890341,6.06654801 11.1035221,5.94953595 10.5,5.94953595 C9.89647787,5.94953595 9.31096594,6.06654801 8.76653598,6.29107139 C7.64800624,6.752354 6.752354,7.64800624 6.29107139,8.76653598 C6.06654801,9.31096594 5.94953595,9.89647787 5.94953595,10.5 C5.94953595,11.1035221 6.06654801,11.6890341 6.29107139,12.233464 C6.752354,13.3519938 7.64800624,14.247646 8.76653598,14.7089286 C9.31096594,14.933452 9.89647787,15.0504641 10.5,15.0504641 Z M10.5,17.0482288 C9.96060453,17.0482288 9.42966569,16.9827753 8.91622621,16.8551771 L8.18605707,18.4150839 C7.62143535,19.6213213 5.81207938,18.7743887 6.3767011,17.5681514 L7.07293049,16.0807522 C6.1970815,15.5419328 5.45806718,14.8029185 4.91924779,13.9270695 L3.43184864,14.6232989 C2.22561133,15.1879206 1.37867875,13.3785647 2.58491606,12.8139429 L4.14482285,12.0837738 C4.0172247,11.5703343 3.95177124,11.0393955 3.95177124,10.5 C3.95177124,9.96060453 4.0172247,9.42966569 4.14482285,8.91622621 L2.58491606,8.18605707 C1.37867875,7.62143535 2.22561133,5.81207938 3.43184864,6.3767011 L4.91924779,7.07293049 C5.45806718,6.1970815 6.1970815,5.45806718 7.07293049,4.91924779 L6.3767011,3.43184864 C5.81207938,2.22561133 7.62143535,1.37867875 8.18605707,2.58491606 L8.91622621,4.14482285 C9.42966569,4.0172247 9.96060453,3.95177124 10.5,3.95177124 C11.0393955,3.95177124 11.5703343,4.0172247 12.0837738,4.14482285 L12.8139429,2.58491606 C13.3785647,1.37867875 15.1879206,2.22561133 14.6232989,3.43184864 L13.9270695,4.91924779 C14.8029185,5.45806718 15.5419328,6.1970815 16.0807522,7.07293049 L17.5681514,6.3767011 C18.7743887,5.81207938 19.6213213,7.62143535 18.4150839,8.18605707 L16.8551771,8.91622621 C16.9827753,9.42966569 17.0482288,9.96060453 17.0482288,10.5 C17.0482288,11.0393955 16.9827753,11.5703343 16.8551771,12.0837738 L18.4150839,12.8139429 C19.6213213,13.3785647 18.7743887,15.1879206 17.5681514,14.6232989 L16.0807522,13.9270695 C15.5419328,14.8029185 14.8029185,15.5419328 13.9270695,16.0807522 L14.6232989,17.5681514 C15.1879206,18.7743887 13.3785647,19.6213213 12.8139429,18.4150839 L12.0837738,16.8551771 C11.5703343,16.9827753 11.0393955,17.0482288 10.5,17.0482288 Z" id="Combined-Shape"></path>
        </g>
    </g>
</svg>