<svg width="21px" height="21px" viewBox="0 0 21 21" version="1.1" xmlns="http://www.w3.org/2000/svg" xmlns:xlink="http://www.w3.org/1999/xlink">
    <defs>
        <linearGradient x1="0%" y1="100%" x2="100%" y2="0%" id="linearGradient-1">
            <stop stop-color="#6673B4" offset="0%"></stop>
            <stop stop-color="#9EAEFF" offset="100%"></stop>
        </linearGradient>
    </defs>
    <g id="Symbols" stroke="none" stroke-width="1" fill="none" fill-rule="evenodd">
        <g id="ic-keys" fill="url(#linearGradient-1)">
            <path d="M4.60666667,12.2930513 L4.60666667,2.79333333 C4.60666667,2.35518743 4.9618541,2 5.4,2 C5.8381459,2 6.19333333,2.35518743 6.19333333,2.79333333 L6.19333333,4.26666667 L6.78,4.26666667 C7.33228475,4.26666667 7.78,4.71438192 7.78,5.26666667 L7.78,6.66666667 C7.78,7.21895142 7.33228475,7.66666667 6.78,7.66666667 L6.19333333,7.66666667 L6.19333333,12.2930513 C7.68844302,12.6504133 8.8,13.9953976 8.8,15.6 C8.8,17.4777681 7.27776815,19 5.4,19 C3.52223185,19 2,17.4777681 2,15.6 C2,13.9953976 3.11155698,12.6504133 4.60666667,12.2930513 Z M16.3933333,8.70694872 L16.3933333,18.2066667 C16.3933333,18.6448126 16.0381459,19 15.6,19 C15.1618541,19 14.8066667,18.6448126 14.8066667,18.2066667 L14.8066667,16.7333333 L14.22,16.7333333 C13.6677153,16.7333333 13.22,16.2856181 13.22,15.7333333 L13.22,14.3333333 C13.22,13.7810486 13.6677153,13.3333333 14.22,13.3333333 L14.8066667,13.3333333 L14.8066667,8.70694872 C13.311557,8.34958671 12.2,7.00460238 12.2,5.4 C12.2,3.52223185 13.7222319,2 15.6,2 C17.4777681,2 19,3.52223185 19,5.4 C19,7.00460238 17.888443,8.34958671 16.3933333,8.70694872 Z M15.6,7.21333333 C16.6014763,7.21333333 17.4133333,6.40147635 17.4133333,5.4 C17.4133333,4.39852365 16.6014763,3.58666667 15.6,3.58666667 C14.5985237,3.58666667 13.7866667,4.39852365 13.7866667,5.4 C13.7866667,6.40147635 14.5985237,7.21333333 15.6,7.21333333 Z M5.4,17.4133333 C6.40147635,17.4133333 7.21333333,16.6014763 7.21333333,15.6 C7.21333333,14.5985237 6.40147635,13.7866667 5.4,13.7866667 C4.39852365,13.7866667 3.58666667,14.5985237 3.58666667,15.6 C3.58666667,16.6014763 4.39852365,17.4133333 5.4,17.4133333 Z" id="Combined-Shape"></path>
        </g>
    </g>
</svg>