<svg width="21px" height="21px" viewBox="0 0 21 21" version="1.1" xmlns="http://www.w3.org/2000/svg" xmlns:xlink="http://www.w3.org/1999/xlink">
    <defs>
        <linearGradient x1="0%" y1="100%" x2="100%" y2="0%" id="linearGradient-1">
            <stop stop-color="#6673B4" offset="0%"></stop>
            <stop stop-color="#9EAEFF" offset="100%"></stop>
        </linearGradient>
    </defs>
    <g id="Symbols" stroke="none" stroke-width="1" fill="none" fill-rule="evenodd">
        <g id="ic-table" fill="url(#linearGradient-1)">
            <path d="M6.4,12.8 L6.4,8.2 L2.9,8.2 C2.40294373,8.2 2,7.79705627 2,7.3 C2,6.80294373 2.40294373,6.4 2.9,6.4 L6.4,6.4 L6.4,2.9 C6.4,2.40294373 6.80294373,2 7.3,2 C7.79705627,2 8.2,2.40294373 8.2,2.9 L8.2,6.4 L12.8,6.4 L12.8,2.9 C12.8,2.40294373 13.2029437,2 13.7,2 C14.1970563,2 14.6,2.40294373 14.6,2.9 L14.6,6.4 L18.1,6.4 C18.5970563,6.4 19,6.80294373 19,7.3 C19,7.79705627 18.5970563,8.2 18.1,8.2 L14.6,8.2 L14.6,12.8 L18.1,12.8 C18.5970563,12.8 19,13.2029437 19,13.7 C19,14.1970563 18.5970563,14.6 18.1,14.6 L14.6,14.6 L14.6,18.1 C14.6,18.5970563 14.1970563,19 13.7,19 C13.2029437,19 12.8,18.5970563 12.8,18.1 L12.8,14.6 L8.2,14.6 L8.2,18.1 C8.2,18.5970563 7.79705627,19 7.3,19 C6.80294373,19 6.4,18.5970563 6.4,18.1 L6.4,14.6 L2.9,14.6 C2.40294373,14.6 2,14.1970563 2,13.7 C2,13.2029437 2.40294373,12.8 2.9,12.8 L6.4,12.8 Z M8.2,12.8 L12.8,12.8 L12.8,8.2 L8.2,8.2 L8.2,12.8 Z" id="Combined-Shape"></path>
        </g>
    </g>
</svg>