<?xml version="1.0" encoding="UTF-8"?>
<svg width="40px" height="40px" viewBox="0 0 40 40" version="1.1" xmlns="http://www.w3.org/2000/svg" xmlns:xlink="http://www.w3.org/1999/xlink">
    <!-- Generator: sketchtool 52.6 (67491) - http://www.bohemiancoding.com/sketch -->
    <title>5B270F77-2D97-457B-AF55-9FB1F3B8B2CC</title>
    <desc>Created with sketchtool.</desc>
    <defs>
        <linearGradient x1="0%" y1="100%" x2="100%" y2="0%" id="linearGradient-1">
            <stop stop-color="#6673B4" offset="0%"></stop>
            <stop stop-color="#9EAEFF" offset="100%"></stop>
        </linearGradient>
    </defs>
    <g id="Symbols" stroke="none" stroke-width="1" fill="none" fill-rule="evenodd">
        <g id="ic-tri-people" fill="url(#linearGradient-1)">
            <path d="M22.261519,30.1978535 L20.0631911,26.3890186 L24.461102,26.3890186 L22.261519,30.1978535 Z M16.7624833,30.1978535 L14.563371,26.3890186 L18.9614387,26.3890186 L16.7624833,30.1978535 Z M11.814559,30.5149034 L14.0125732,26.7060685 L16.2126267,30.5149034 L11.814559,30.5149034 Z M21.7108781,30.5149034 L17.313281,30.5149034 L19.5122365,26.7060685 L21.7108781,30.5149034 Z M25.0120566,26.7060685 L27.2094433,30.5149034 L22.8124737,30.5149034 L25.0120566,26.7060685 Z M27.2094433,31.1510427 L25.0120566,34.9601913 L22.8124737,31.1510427 L27.2094433,31.1510427 Z M21.7108781,31.1510427 L19.5122365,34.9601913 L17.313281,31.1510427 L21.7108781,31.1510427 Z M14.0125732,34.9601913 L11.814559,31.1510427 L16.2126267,31.1510427 L14.0125732,34.9601913 Z M16.7624833,31.4680926 L18.9614387,35.2781825 L14.563371,35.2781825 L16.7624833,31.4680926 Z M22.261519,31.4680926 L24.461102,35.2781825 L20.0631911,35.2781825 L22.261519,31.4680926 Z M24.461102,35.9133805 L22.261519,39.7225292 L20.0631911,35.9133805 L24.461102,35.9133805 Z M34.0522326,25.5927071 L31.8526497,21.7838722 L36.2496193,21.7838722 L34.0522326,25.5927071 Z M39,25.9106983 L34.6011479,25.9106983 L36.8004171,22.0999809 L39,25.9106983 Z M39,26.5458963 L36.8004171,30.3547312 L34.6011479,26.5458963 L39,26.5458963 Z M34.0522326,26.8629462 L36.2496193,30.6717811 L31.8526497,30.6717811 L34.0522326,26.8629462 Z M36.2496193,31.3079204 L34.0522326,35.1170691 L31.8526497,31.3079204 L36.2496193,31.3079204 Z M31.301695,31.6249703 L33.501278,35.4350603 L29.1033671,35.4350603 L31.301695,31.6249703 Z M18.9614387,35.9133805 L16.7624833,39.7225292 L14.563371,35.9133805 L18.9614387,35.9133805 Z M7.14782093,21.7838722 L4.94776736,25.5927071 L2.7497532,21.7838722 L7.14782093,21.7838722 Z M4.39885211,25.9106983 L0,25.9106983 L2.19895542,22.0999809 L4.39885211,25.9106983 Z M2.19895542,30.3547312 L0,26.5458963 L4.39885211,26.5458963 L2.19895542,30.3547312 Z M2.7497532,30.6717811 L4.94776736,26.8629462 L7.14782093,30.6717811 L2.7497532,30.6717811 Z M4.94776736,35.1170691 L2.7497532,31.3079204 L7.14782093,31.3079204 L4.94776736,35.1170691 Z M7.69767744,31.6249703 L9.89663287,35.4350603 L5.49856514,35.4350603 L7.69767744,31.6249703 Z M19.5272967,36.1985843 L21.7259384,40.0077329 L17.3283413,40.0077329 L19.5272967,36.1985843 Z M14.705816,15.9723627 L18.8255826,18.3517276 L14.705816,20.7282686 L14.705816,15.9723627 Z M19.1696155,18.9451961 L19.1696155,23.701102 L15.0503195,21.3226784 L19.1696155,18.9451961 Z M19.1696155,13 L19.1696155,17.7563765 L15.0503195,15.3788942 L19.1696155,13 Z M19.8545437,13 L23.9743103,15.3788942 L19.8545437,17.7563765 L19.8545437,13 Z M19.8545437,18.9451961 L23.9743103,21.3226784 L19.8545437,23.701102 L19.8545437,18.9451961 Z M24.3183432,20.7282686 L20.0424833,18.3517276 L24.3183432,15.9723627 L24.3183432,20.7282686 Z M26.7266692,12.9723627 L30.8464358,15.3517276 L26.7266692,17.7282686 L26.7266692,12.9723627 Z M31.1904687,15.9451961 L31.1904687,20.701102 L27.0711728,18.3226784 L31.1904687,15.9451961 Z M31.1904687,10 L31.1904687,14.7563765 L27.0711728,12.3788942 L31.1904687,10 Z M31.875397,10 L35.9951636,12.3788942 L31.875397,14.7563765 L31.875397,10 Z M31.875397,15.9451961 L35.9951636,18.3226784 L31.875397,20.701102 L31.875397,15.9451961 Z M36.3391965,17.7282686 L32.0633365,15.3517276 L36.3391965,12.9723627 L36.3391965,17.7282686 Z M2.68496269,12.9723627 L6.80472929,15.3517276 L2.68496269,17.7282686 L2.68496269,12.9723627 Z M7.1487622,15.9451961 L7.1487622,20.701102 L3.02946623,18.3226784 L7.1487622,15.9451961 Z M7.1487622,10 L7.1487622,14.7563765 L3.02946623,12.3788942 L7.1487622,10 Z M7.83369045,10 L11.953457,12.3788942 L7.83369045,14.7563765 L7.83369045,10 Z M7.83369045,15.9451961 L11.953457,18.3226784 L7.83369045,20.701102 L7.83369045,15.9451961 Z M12.29749,17.7282686 L8.02163,15.3517276 L12.29749,12.9723627 L12.29749,17.7282686 Z" id="Combined-Shape"></path>
        </g>
    </g>
</svg>