<?xml version="1.0" encoding="UTF-8"?>
<svg width="40px" height="40px" viewBox="0 0 40 40" version="1.1" xmlns="http://www.w3.org/2000/svg" xmlns:xlink="http://www.w3.org/1999/xlink">
    <!-- Generator: sketchtool 52.6 (67491) - http://www.bohemiancoding.com/sketch -->
    <title>6A5029A8-B25B-4441-868E-EE35442D1467</title>
    <desc>Created with sketchtool.</desc>
    <defs>
        <linearGradient x1="0%" y1="100%" x2="100%" y2="0%" id="linearGradient-1">
            <stop stop-color="#6673B4" offset="0%"></stop>
            <stop stop-color="#9EAEFF" offset="100%"></stop>
        </linearGradient>
    </defs>
    <g id="Symbols" stroke="none" stroke-width="1" fill="none" fill-rule="evenodd">
        <g id="ic-tri-guitar" fill="url(#linearGradient-1)">
            <path d="M19.8280338,20.1729189 L21.1284983,15.3188043 L24.6811957,18.8724544 L19.8280338,20.1729189 Z M14.3613195,16.7564606 L13.0608551,21.6105752 L9.50625223,18.0578778 L14.3613195,16.7564606 Z M18.8029058,21.1989996 L17.5024413,26.0512088 L13.9478385,22.4994641 L18.8029058,21.1989996 Z M21.9421222,30.4947005 L18.3894248,26.9410504 L23.2444921,25.6396332 L21.9421222,30.4947005 Z M27.5212576,12.4796951 L28.8226748,7.62558056 L32.3753722,11.178278 L27.5212576,12.4796951 Z M25.1947124,18.3589377 L21.642015,14.8062403 L26.4961296,13.5048232 L25.1947124,18.3589377 Z M29.3352388,7.11206383 L34.1893533,5.81159938 L32.8888889,10.6657139 L29.3352388,7.11206383 Z M35.1458854,4.85411456 L36.4473026,0 L40,3.55269739 L35.1458854,4.85411456 Z M16.5763963,32.307729 L17.8768608,27.4536144 L21.4305109,31.0063118 L16.5763963,32.307729 Z M13.4362272,23.0120281 L16.9889246,26.5647255 L12.1348101,27.8651899 L13.4362272,23.0120281 Z M8.99368822,18.5704418 L12.5473383,22.1240919 L7.69322377,23.4236037 L8.99368822,18.5704418 Z M7.88090985,24.1248065 L12.7350244,22.824342 L11.43456,27.6775039 L7.88090985,24.1248065 Z M12.3224961,28.5663928 L17.1766107,27.266881 L15.8761462,32.1190902 L12.3224961,28.5663928 Z M11.8099321,29.0799095 L15.3626295,32.6326069 L10.5094677,33.9340241 L11.8099321,29.0799095 Z M10.9210432,28.1910206 L6.06692866,29.4914851 L7.36834584,24.6383232 L10.9210432,28.1910206 Z M6.66714303,24.4506371 L5.36667858,29.303799 L1.81302846,25.7511016 L6.66714303,24.4506371 Z M14.2498511,38.1869715 L10.6971537,34.6342741 L15.5503156,33.3338097 L14.2498511,38.1869715 Z M8.88317256,40.0009527 L10.183637,35.1477909 L13.7372871,38.7004883 L8.88317256,40.0009527 Z M5.74205073,30.7052519 L9.29570085,34.258902 L4.44158628,35.5603192 L5.74205073,30.7052519 Z M1.30046445,26.2636656 L4.85316184,29.8154103 L0,31.1177802 L1.30046445,26.2636656 Z M0.187686078,31.8180302 L5.04180064,30.5175658 L3.74038347,35.3716804 L0.187686078,31.8180302 Z M4.62927236,36.2605693 L9.48338692,34.9591521 L8.18292247,39.8132666 L4.62927236,36.2605693 Z" id="Combined-Shape"></path>
        </g>
    </g>
</svg>