<?xml version="1.0" encoding="UTF-8"?>
<svg width="40px" height="40px" viewBox="0 0 40 40" version="1.1" xmlns="http://www.w3.org/2000/svg" xmlns:xlink="http://www.w3.org/1999/xlink">
    <!-- Generator: sketchtool 52.6 (67491) - http://www.bohemiancoding.com/sketch -->
    <title>43324776-1C26-4C1F-93EE-3AF847F92BB1</title>
    <desc>Created with sketchtool.</desc>
    <defs>
        <linearGradient x1="0%" y1="100%" x2="100%" y2="0%" id="linearGradient-1">
            <stop stop-color="#6673B4" offset="0%"></stop>
            <stop stop-color="#9EAEFF" offset="100%"></stop>
        </linearGradient>
    </defs>
    <g id="Symbols" stroke="none" stroke-width="1" fill="none" fill-rule="evenodd">
        <g id="ic-tri-gem" fill="url(#linearGradient-1)">
            <path d="M24.5354815,21.2494569 L21.6495293,16.249819 L27.4214337,16.249819 L24.5354815,21.2494569 Z M20.204924,16.249819 L17.3189718,21.2494569 L14.4330196,16.249819 L20.204924,16.249819 Z M12.9884142,16.249819 L10.102462,21.2494569 L7.21650978,16.249819 L12.9884142,16.249819 Z M2.88595221,21.2494569 L2.54463117e-13,16.249819 L5.77299059,16.249819 L2.88595221,21.2494569 Z M3.60825489,21.666546 L6.4942071,16.666908 L9.3801593,21.666546 L3.60825489,21.666546 Z M13.7107169,16.666908 L16.5966691,21.666546 L10.8247647,21.666546 L13.7107169,16.666908 Z M18.0412744,21.666546 L20.9261405,16.666908 L23.814265,21.666546 L18.0412744,21.666546 Z M20.9261405,27.4992759 L18.0412744,22.4996379 L23.814265,22.4996379 L20.9261405,27.4992759 Z M16.5966691,22.4996379 L13.7107169,27.4992759 L10.8247647,22.4996379 L16.5966691,22.4996379 Z M6.4942071,27.4992759 L3.60825489,22.4996379 L9.3801593,22.4996379 L6.4942071,27.4992759 Z M10.102462,22.916727 L12.9884142,27.916365 L7.21650978,27.916365 L10.102462,22.916727 Z M14.4330196,27.916365 L17.3189718,22.916727 L20.204924,27.916365 L14.4330196,27.916365 Z M23.814265,10 L20.9261405,15.0007241 L18.0412744,10 L23.814265,10 Z M16.5966691,10 L13.7107169,15.0007241 L10.8247647,10 L16.5966691,10 Z M9.3801593,10 L6.4942071,15.0007241 L3.60825489,10 L9.3801593,10 Z M5.77299059,15.416727 L2.54463117e-13,15.416727 L2.88595221,10.4170891 L5.77299059,15.416727 Z M12.9884142,15.416727 L7.21650978,15.416727 L10.102462,10.4170891 L12.9884142,15.416727 Z M20.204924,15.416727 L14.4330196,15.416727 L17.3189718,10.4170891 L20.204924,15.416727 Z M27.4214337,15.416727 L21.6495293,15.416727 L24.5354815,10.4170891 L27.4214337,15.416727 Z M17.3189718,33.750181 L14.4330196,28.7494569 L20.204924,28.7494569 L17.3189718,33.750181 Z M12.9884142,28.7494569 L10.102462,33.750181 L7.21650978,28.7494569 L12.9884142,28.7494569 Z M10.8247647,34.1661839 L13.7107169,29.166546 L16.5966691,34.1661839 L10.8247647,34.1661839 Z M13.7107169,40 L10.8247647,35.0014482 L16.5966691,35.0014482 L13.7107169,40 Z" id="Combined-Shape"></path>
        </g>
    </g>
</svg>