<?xml version="1.0" encoding="UTF-8"?>
<svg width="40px" height="40px" viewBox="0 0 40 40" version="1.1" xmlns="http://www.w3.org/2000/svg" xmlns:xlink="http://www.w3.org/1999/xlink">
    <!-- Generator: sketchtool 52.6 (67491) - http://www.bohemiancoding.com/sketch -->
    <title>7695B7CF-BB9E-4B21-B3DD-78BB1C196136</title>
    <desc>Created with sketchtool.</desc>
    <defs>
        <linearGradient x1="0%" y1="100%" x2="100%" y2="0%" id="linearGradient-1">
            <stop stop-color="#6673B4" offset="0%"></stop>
            <stop stop-color="#9EAEFF" offset="100%"></stop>
        </linearGradient>
    </defs>
    <g id="Symbols" stroke="none" stroke-width="1" fill="none" fill-rule="evenodd">
        <g id="ic-tri-cube" fill="url(#linearGradient-1)">
            <path d="M5.28391026,11.0347877 L9.51064103,13.4492925 L5.28391026,15.8628145 L5.28391026,11.0347877 Z M5.28391026,17.0695755 L9.51064103,19.4830975 L5.28391026,21.8956368 L5.28391026,17.0695755 Z M5.28391026,29.1371855 L9.51064103,31.552673 L5.28391026,33.9652123 L5.28391026,29.1371855 Z M5.63663462,34.5695755 L9.86336538,32.1570362 L9.86336538,36.9830975 L5.63663462,34.5695755 Z M5.63663462,22.5009827 L9.86336538,20.086478 L9.86336538,24.9154874 L5.63663462,22.5009827 Z M5.63663462,16.466195 L9.86336538,14.0516903 L9.86336538,18.879717 L5.63663462,16.466195 Z M5.63663462,10.4314072 L9.86336538,8.01788522 L9.86336538,12.8449292 L5.63663462,10.4314072 Z M10.5678205,8.01788522 L14.7955449,10.4314072 L10.5678205,12.8449292 L10.5678205,8.01788522 Z M10.5678205,14.0516903 L14.7955449,16.466195 L10.5678205,18.879717 L10.5678205,14.0516903 Z M10.5678205,20.086478 L14.7955449,22.5009827 L10.5678205,24.9154874 L10.5678205,20.086478 Z M10.5678205,26.1212657 L14.7955449,28.5347877 L10.5678205,30.9483097 L10.5678205,26.1212657 Z M10.5678205,32.1570362 L14.7955449,34.5695755 L10.5678205,36.9830975 L10.5678205,32.1570362 Z M10.9205449,37.586478 L15.1472756,35.172956 L15.1472756,40 L10.9205449,37.586478 Z M10.9205449,31.552673 L15.1472756,29.1371855 L15.1472756,33.9652123 L10.9205449,31.552673 Z M10.9205449,25.5178852 L15.1472756,23.1033805 L15.1472756,27.9314072 L10.9205449,25.5178852 Z M10.9205449,19.4830975 L15.1472756,17.0695755 L15.1472756,21.8956368 L10.9205449,19.4830975 Z M10.9205449,7.41352201 L15.1472756,5 L15.1472756,9.82802673 L10.9205449,7.41352201 Z M4.07673895e-13,14.0516903 L4.22673077,16.466195 L4.07673895e-13,18.879717 L4.07673895e-13,14.0516903 Z M4.07673895e-13,20.086478 L4.22673077,22.5009827 L4.07673895e-13,24.9154874 L4.07673895e-13,20.086478 Z M4.07673895e-13,26.1212657 L4.22673077,28.5347877 L4.07673895e-13,30.9483097 L4.07673895e-13,26.1212657 Z M0.351730769,31.552673 L4.57945513,29.1371855 L4.57945513,33.9652123 L0.351730769,31.552673 Z M0.351730769,25.5178852 L4.57945513,23.1033805 L4.57945513,27.9314072 L0.351730769,25.5178852 Z M0.351730769,19.4830975 L4.57945513,17.0695755 L4.57945513,21.8956368 L0.351730769,19.4830975 Z M0.351730769,13.4492925 L4.57945513,11.0347877 L4.57945513,15.8628145 L0.351730769,13.4492925 Z M15.8517308,5 L20.0784615,7.41352201 L15.8517308,9.82802673 L15.8517308,5 Z M15.8517308,17.0695755 L20.0784615,19.4830975 L15.8517308,21.8956368 L15.8517308,17.0695755 Z M15.8517308,23.1033805 L20.0784615,25.5178852 L15.8517308,27.9314072 L15.8517308,23.1033805 Z M15.8517308,29.1371855 L20.0784615,31.552673 L15.8517308,33.9652123 L15.8517308,29.1371855 Z M15.8517308,35.172956 L20.0784615,37.586478 L15.8517308,40 L15.8517308,35.172956 Z M16.2044551,34.5695755 L20.4311859,32.1570362 L20.4311859,36.9830975 L16.2044551,34.5695755 Z M16.2044551,28.5347877 L20.4311859,26.1212657 L20.4311859,30.9483097 L16.2044551,28.5347877 Z M16.2044551,22.5009827 L20.4311859,20.086478 L20.4311859,24.9154874 L16.2044551,22.5009827 Z M16.2044551,16.466195 L20.4311859,14.0516903 L20.4311859,18.879717 L16.2044551,16.466195 Z M16.2044551,10.4314072 L20.4311859,8.01788522 L20.4311859,12.8449292 L16.2044551,10.4314072 Z M21.1346474,8.01788522 L25.3633654,10.4314072 L21.1346474,12.8449292 L21.1346474,8.01788522 Z M21.1346474,14.0516903 L25.3633654,16.466195 L21.1346474,18.879717 L21.1346474,14.0516903 Z M21.1346474,20.086478 L25.3633654,22.5009827 L21.1346474,24.9154874 L21.1346474,20.086478 Z M21.1346474,32.1570362 L25.3633654,34.5695755 L21.1346474,36.9830975 L21.1346474,32.1570362 Z M21.4883654,31.552673 L25.7150962,29.1371855 L25.7150962,33.9652123 L21.4883654,31.552673 Z M21.4883654,19.4830975 L25.7150962,17.0695755 L25.7150962,21.8956368 L21.4883654,19.4830975 Z M21.4883654,13.4492925 L25.7150962,11.0347877 L25.7150962,15.8628145 L21.4883654,13.4492925 Z M26.4195513,11.0347877 L30.6462821,13.4492925 L26.4195513,15.8628145 L26.4195513,11.0347877 Z M26.4195513,17.0695755 L30.6462821,19.4830975 L26.4195513,21.8956368 L26.4195513,17.0695755 Z M26.4195513,23.1033805 L30.6462821,25.5178852 L26.4195513,27.9314072 L26.4195513,23.1033805 Z M26.4195513,29.1371855 L30.6462821,31.552673 L26.4195513,33.9652123 L26.4195513,29.1371855 Z M26.7722756,28.5347877 L31,26.1212657 L31,30.9483097 L26.7722756,28.5347877 Z M26.7722756,22.5009827 L31,20.086478 L31,24.9154874 L26.7722756,22.5009827 Z M26.7722756,16.466195 L31,14.0516903 L31,18.879717 L26.7722756,16.466195 Z" id="Combined-Shape"></path>
        </g>
    </g>
</svg>