<svg width="21px" height="21px" viewBox="0 0 21 21" version="1.1" xmlns="http://www.w3.org/2000/svg" xmlns:xlink="http://www.w3.org/1999/xlink">
    <defs>
        <linearGradient x1="0%" y1="100%" x2="100%" y2="0%" id="linearGradient-1">
            <stop stop-color="#6673B4" offset="0%"></stop>
            <stop stop-color="#9EAEFF" offset="100%"></stop>
        </linearGradient>
    </defs>
    <g id="Symbols" stroke="none" stroke-width="1" fill="none" fill-rule="evenodd">
        <g id="ic-users" fill="url(#linearGradient-1)">
            <path d="M4.24623086,9.38801481 C3.52357119,8.55337719 3.08823529,7.47618745 3.08823529,6.30022635 C3.08823529,3.64930501 5.30047535,1.50030866 8.02941176,1.50030866 C10.7583482,1.50030866 12.9705882,3.64930501 12.9705882,6.30022635 C12.9705882,7.47618745 12.5352523,8.55337719 11.8125927,9.38801481 C13.817768,10.3094243 15.3291618,12.0790379 15.8559782,14.2200905 L16.5350475,14.2200905 L18.2705882,14.2200905 C18.822873,14.2200905 19.2705882,13.7723753 19.2705882,13.2200905 L19.2705882,13.0201111 C19.2705882,10.6453741 17.2980423,8.71817887 14.8577548,8.70031046 C14.3624901,8.70515989 13.8631004,8.61388091 13.390875,8.4211141 C13.390875,8.4211141 13.4905408,7.83840669 13.6898725,6.67299188 C14.0354147,6.90802625 14.4314707,7.02070925 14.8235294,7.0203779 C14.8306273,7.02021401 14.8377223,7.02022564 14.8448146,7.02024888 C15.4599412,7.0133119 16.0627886,6.72835831 16.4425593,6.2014948 C17.0686608,5.33289175 16.8513519,4.13570438 15.9571864,3.52750197 C15.1129505,2.95326121 13.9671814,3.10937562 13.3148899,3.85967085 C13.3148899,3.85967085 12.306934,2.45664085 12.306934,2.45664085 C13.5596059,1.32915255 15.4934378,1.16119869 16.9491362,2.15135014 C18.6256966,3.29172965 19.0331507,5.53645597 17.8592105,7.16508669 C17.7450838,7.32341694 17.6202127,7.47009563 17.4862243,7.60484403 C19.5645099,8.57088598 21,10.6326527 21,13.0201111 L21,13.9000617 C21,15.0046312 20.1045695,15.9000617 19,15.9000617 L16.7160356,15.9000617 L16.0588235,15.9000617 L16.0588235,17.5 C16.0588235,18.6045695 15.163393,19.5 14.0588235,19.5 L2,19.5 C0.8954305,19.5 -3.68798443e-15,18.6045695 -3.55271368e-15,17.5 L-3.55271368e-15,15.9000617 C-3.19010101e-15,13.0237527 1.73627452,10.5413791 4.24623086,9.38801481 Z M6.60205155,9.09590875 C7.03203396,9.30346649 7.51669265,9.42017285 8.02941176,9.42017285 C8.52872994,9.42017285 9.00143536,9.30948747 9.42294505,9.1119969 C10.4988324,8.60790979 11.2411765,7.5382816 11.2411765,6.30022635 C11.2411765,4.57712748 9.80322043,3.18027985 8.02941176,3.18027985 C6.2556031,3.18027985 4.81764706,4.57712748 4.81764706,6.30022635 C4.81764706,7.52526377 5.54446212,8.58539745 6.60205155,9.09590875 Z M5.82639476,10.5978526 C3.45960059,11.2644877 1.72941176,13.3859974 1.72941176,15.9000617 L1.72941176,16.8200288 C1.72941176,17.3723136 2.17712701,17.8200288 2.72941176,17.8200288 L13.3294118,17.8200288 C13.8816965,17.8200288 14.3294118,17.3723136 14.3294118,16.8200288 L14.3294118,15.9000617 C14.3294118,13.3859974 12.5992229,11.2644877 10.2324288,10.5978526 C9.56915988,10.9193121 8.82102508,11.100144 8.02941176,11.100144 C7.23779845,11.100144 6.48966365,10.9193121 5.82639476,10.5978526 Z" id="Combined-Shape"></path>
        </g>
    </g>
</svg>