<svg width="20" height="20" viewBox="0 0 20 20" fill="none" xmlns="http://www.w3.org/2000/svg">
<path fill-rule="evenodd" clip-rule="evenodd" d="M20 10C20 15.5228 15.5228 20 10 20C4.47715 20 0 15.5228 0 10C0 4.47715 4.47715 0 10 0C15.5228 0 20 4.47715 20 10ZM9.27955 5.36273C9.27996 4.96348 9.60044 4.64299 9.9997 4.64259C10.399 4.64218 10.7188 4.96202 10.7184 5.36128L10.7144 9.27412L14.6197 9.2777C15.019 9.27729 15.3388 9.59713 15.3384 9.99638C15.342 10.196 15.2627 10.3731 15.1307 10.5051C15.0025 10.6333 14.8179 10.7126 14.622 10.7128L10.7092 10.7167L10.7052 14.6296C10.7086 15.0251 10.4482 15.3455 9.98884 15.346C9.58959 15.3464 9.26975 15.0265 9.27016 14.6273L9.27412 10.7144L5.36128 10.7184C4.96202 10.7188 4.64218 10.399 4.64259 9.9997C4.64299 9.60044 4.96348 9.27996 5.36273 9.27955L9.27558 9.27558L9.27955 5.36273Z" fill="url(#paint0_linear)"/>
<defs>
<linearGradient id="paint0_linear" x1="10" y1="30" x2="30" y2="10" gradientUnits="userSpaceOnUse">
<stop stop-color="#6673B4"/>
<stop offset="1" stop-color="#9EAEFF"/>
</linearGradient>
</defs>
</svg>
