<svg width="30" height="30" viewBox="0 0 30 30" fill="none" xmlns="http://www.w3.org/2000/svg">
<rect width="30" height="30" rx="4" fill="url(#paint0_linear)"/>
<path d="M8.51292 20V10.27H14.2529V11.054H9.38092V15.072H13.5249V15.842H9.38092V20H8.51292ZM21.163 9.892V20H20.323V19.482C19.5856 19.9207 18.839 20.14 18.083 20.14C17.7376 20.14 17.439 20.098 17.187 20.014C16.935 19.9393 16.6783 19.7853 16.417 19.552C15.885 19.076 15.619 18.1473 15.619 16.766C15.619 15.3753 15.843 14.3767 16.291 13.77C16.739 13.1633 17.495 12.86 18.559 12.86C18.9696 12.86 19.5576 12.9207 20.323 13.042V9.892H21.163ZM17.033 18.922C17.2103 19.0993 17.383 19.2207 17.551 19.286C17.7283 19.3513 17.9523 19.384 18.223 19.384C18.503 19.384 18.8203 19.3327 19.175 19.23C19.539 19.1273 19.8236 19.0293 20.029 18.936L20.323 18.782V13.77C19.5763 13.658 18.9976 13.602 18.587 13.602C17.7936 13.602 17.243 13.8447 16.935 14.33C16.6363 14.8153 16.487 15.5667 16.487 16.584C16.487 17.7787 16.669 18.558 17.033 18.922Z" fill="white"/>
<defs>
<linearGradient id="paint0_linear" x1="15.8323" y1="-13.3353" x2="-14.1677" y2="15" gradientUnits="userSpaceOnUse">
<stop stop-color="#855DF8"/>
<stop offset="1" stop-color="#3C2DA9"/>
</linearGradient>
</defs>
</svg>
