<?xml version="1.0" encoding="UTF-8"?>
<svg width="30px" height="30px" viewBox="0 0 30 30" version="1.1" xmlns="http://www.w3.org/2000/svg" xmlns:xlink="http://www.w3.org/1999/xlink">
    <!-- Generator: sketchtool 52.6 (67491) - http://www.bohemiancoding.com/sketch -->
    <title>FA3536BF-99C9-49EC-AA1F-C36AE7710FEA</title>
    <desc>Created with sketchtool.</desc>
    <defs>
        <linearGradient x1="0%" y1="100%" x2="100%" y2="0%" id="linearGradient-1">
            <stop stop-color="#6673B4" offset="0%"></stop>
            <stop stop-color="#9EAEFF" offset="100%"></stop>
        </linearGradient>
    </defs>
    <g id="Symbols" stroke="none" stroke-width="1" fill="none" fill-rule="evenodd">
        <g id="ic-btn-download" fill="url(#linearGradient-1)">
            <path d="M15,30 C23.2842712,30 30,23.2842712 30,15 C30,6.71572875 23.2842712,0 15,0 C6.71572875,0 0,6.71572875 0,15 C0,23.2842712 6.71572875,30 15,30 Z M6.21541675,18.6809421 C7.84209077,22.3772149 11.2148748,24.778394 14.9946839,24.778394 C18.7577191,24.778394 22.127563,22.3741261 23.76223,18.6825406 C24.2780783,17.4328463 25.1992043,18.0543425 24.9615557,18.6826498 C23.2834754,22.9887643 19.4523714,25.9979062 14.9946839,25.9979062 C10.5277164,25.9979062 6.68994399,23.0013157 5.01735987,18.680833 C4.87175084,18.1911518 5.67448563,17.5051373 6.21541675,18.6809421 Z M14.6033775,19.4586243 L10.9873316,15.6936776 C10.7642228,15.4611109 10.7642228,15.0881267 10.9873316,14.85556 C11.2104404,14.6229934 11.5682563,14.6229934 11.7913651,14.85556 L14.4349935,17.6112553 L14.4349935,5.59238673 C14.4349935,5.26328299 14.6875695,5 15.0032895,5 C15.3190094,5 15.5715854,5.26328299 15.5715854,5.59238673 L15.5715854,17.6112553 L18.2110043,14.85556 C18.434113,14.6229934 18.791929,14.6229934 19.0150378,14.85556 C19.2381465,15.0881267 19.2381465,15.4611109 19.0150378,15.6936776 L15.4032014,19.4586243 C15.2937518,19.5771017 15.1464159,19.6341463 15.0032895,19.6341463 C14.8601631,19.6341463 14.7128271,19.5727136 14.6033775,19.4586243 Z" id="icon-btn-dowld"></path>
        </g>
    </g>
</svg>