<svg width="15px" height="15px" viewBox="0 0 15 15" version="1.1" xmlns="http://www.w3.org/2000/svg" xmlns:xlink="http://www.w3.org/1999/xlink">
    <desc>Created with sketchtool.</desc>
    <defs>
        <linearGradient x1="0%" y1="100%" x2="100%" y2="0%" id="linearGradient-1">
            <stop stop-color="#6673B4" offset="0%"></stop>
            <stop stop-color="#9EAEFF" offset="100%"></stop>
        </linearGradient>
    </defs>
    <g id="Symbols" stroke="none" stroke-width="1" fill="none" fill-rule="evenodd">
        <g id="tab-menu-m" transform="translate(-181.000000, -15.000000)" fill="url(#linearGradient-1)">
            <path d="M185.821429,24.0066964 C186.892862,24.6540211 187.428571,25.5803511 187.428571,26.7857143 C187.428571,27.6785759 187.116075,28.4374969 186.491071,29.0625 C185.866068,29.6875031 185.107147,30 184.214286,30 C183.321424,30 182.562503,29.6875031 181.9375,29.0625 C181.312497,28.4374969 181,27.6785759 181,26.7857143 C181,25.535708 181.535709,24.5982174 182.607143,23.9732143 C182.763394,23.6160696 182.897321,23.1584849 183.008929,22.6004464 C183.008929,22.5558033 183.070312,22.49442 183.19308,22.4162946 C183.315849,22.3381693 183.377232,22.2656253 183.377232,22.1986607 L183.377232,21.5290179 C183.377232,21.4620532 183.33817,21.3895093 183.260045,21.3113839 C183.181919,21.2332585 183.142857,21.1830358 183.142857,21.1607143 L183.142857,20.625 C183.142857,20.5357138 183.154018,20.4687502 183.176339,20.4241071 L183.209821,20.390625 L183.209821,20.3571429 L183.276786,20.3236607 L183.410714,20.1897321 L183.410714,20.15625 C183.477679,20.0892854 183.511161,20.0223218 183.511161,19.9553571 L183.544643,19.8214286 L183.544643,19.6540179 C183.544643,19.5647317 183.5,19.4754469 183.410714,19.3861607 L183.209821,19.1852679 C183.142857,19.1183032 183.109375,19.0290184 183.109375,18.9174107 L183.109375,18.6830357 C183.109375,18.571428 183.154017,18.4709826 183.243304,18.3816964 L183.410714,18.2142857 C183.5,18.1249996 183.544643,18.0580359 183.544643,18.0133929 L183.544643,17.2098214 C183.544643,17.1205353 183.5,17.0312504 183.410714,16.9419643 L183.410714,16.9084821 L183.243304,16.7410714 C183.176339,16.6741068 183.142857,16.584822 183.142857,16.4732143 L183.142857,15.8705357 C183.142857,15.4464265 183.243303,15.1897326 183.444196,15.1004464 C183.64509,15.0334818 183.901784,15 184.214286,15 C184.57143,15 184.833705,15.0892848 185.001116,15.2678571 C185.168528,15.4464295 185.263393,15.7589263 185.285714,16.2053571 C185.441965,18.0134019 185.54241,19.6093681 185.587054,20.9933036 L185.821429,24.0066964 Z M183.444196,28.6272321 C183.64509,28.828126 183.901784,28.9285714 184.214286,28.9285714 C184.526787,28.9285714 184.783481,28.828126 184.984375,28.6272321 C185.185269,28.4263383 185.285714,28.1696444 185.285714,27.8571429 C185.285714,27.5446413 185.185269,27.2879474 184.984375,27.0870536 C184.783481,26.8861597 184.526787,26.7857143 184.214286,26.7857143 C183.901784,26.7857143 183.64509,26.8861597 183.444196,27.0870536 C183.243303,27.2879474 183.142857,27.5446413 183.142857,27.8571429 C183.142857,28.1696444 183.243303,28.4263383 183.444196,28.6272321 Z M191.177143,20.9933036 C190.105709,20.3459789 189.57,19.4196489 189.57,18.2142857 C189.57,17.3214241 189.882497,16.5625031 190.5075,15.9375 C191.132503,15.3124969 191.891424,15 192.784286,15 C193.677147,15 194.436068,15.3124969 195.061071,15.9375 C195.686075,16.5625031 195.998571,17.3214241 195.998571,18.2142857 C195.998571,19.464292 195.462863,20.4017826 194.391429,21.0267857 C194.235178,21.3839304 194.101251,21.8415151 193.989643,22.3995536 C193.989643,22.4441967 193.92826,22.50558 193.805491,22.5837054 C193.682723,22.6618307 193.621339,22.7343747 193.621339,22.8013393 L193.621339,23.4709821 C193.621339,23.5379468 193.660401,23.6104907 193.738527,23.6886161 C193.816652,23.7667415 193.855714,23.8169642 193.855714,23.8392857 L193.855714,24.375 C193.855714,24.4642862 193.844554,24.5312498 193.822232,24.5758929 L193.78875,24.609375 L193.78875,24.6428571 L193.721786,24.6763393 L193.587857,24.8102679 L193.587857,24.84375 C193.520893,24.9107146 193.487411,24.9776782 193.487411,25.0446429 L193.453929,25.1785714 L193.453929,25.3459821 C193.453929,25.4352683 193.498571,25.5245531 193.587857,25.6138393 L193.78875,25.8147321 C193.855715,25.8816968 193.889196,25.9709816 193.889196,26.0825893 L193.889196,26.3169643 C193.889196,26.428572 193.844554,26.5290174 193.755268,26.6183036 L193.587857,26.7857143 C193.498571,26.8750004 193.453929,26.9419641 193.453929,26.9866071 L193.453929,27.7901786 C193.453929,27.8794647 193.498571,27.9687496 193.587857,28.0580357 L193.587857,28.0915179 L193.755268,28.2589286 C193.822232,28.3258932 193.855714,28.415178 193.855714,28.5267857 L193.855714,29.1294643 C193.855714,29.5535735 193.755269,29.8102674 193.554375,29.8995536 C193.353481,29.9665182 193.096787,30 192.784286,30 C192.427141,30 192.164867,29.9107152 191.997455,29.7321429 C191.830044,29.5535705 191.735179,29.2410737 191.712857,28.7946429 C191.556606,26.9865981 191.456161,25.3906319 191.411518,24.0066964 L191.177143,20.9933036 Z M193.554375,16.3727679 C193.353481,16.171874 193.096787,16.0714286 192.784286,16.0714286 C192.471784,16.0714286 192.21509,16.171874 192.014196,16.3727679 C191.813303,16.5736617 191.712857,16.8303556 191.712857,17.1428571 C191.712857,17.4553587 191.813303,17.7120526 192.014196,17.9129464 C192.21509,18.1138403 192.471784,18.2142857 192.784286,18.2142857 C193.096787,18.2142857 193.353481,18.1138403 193.554375,17.9129464 C193.755269,17.7120526 193.855714,17.4553587 193.855714,17.1428571 C193.855714,16.8303556 193.755269,16.5736617 193.554375,16.3727679 Z" id="Combined-Shape"></path>
        </g>
    </g>
</svg>