<svg width="15" height="17" viewBox="0 0 15 17" fill="none" xmlns="http://www.w3.org/2000/svg">
<path fill-rule="evenodd" clip-rule="evenodd" d="M12.375 6.25H14C14.5523 6.25 15 6.69772 15 7.25V15.5C15 16.0523 14.5523 16.5 14 16.5H1C0.447715 16.5 0 16.0523 0 15.5V7.25C0 6.69772 0.447715 6.25 1 6.25H2.625V4.875C2.625 3.53124 3.10156 2.38282 4.05469 1.42969C5.00782 0.476558 6.15624 0 7.5 0C8.84376 0 9.99218 0.476558 10.9453 1.42969C11.8984 2.38282 12.375 3.53124 12.375 4.875V6.25ZM3.375 4.875V6.25H11.625V4.875C11.625 3.71874 11.2266 2.74219 10.4297 1.94531C9.63281 1.14843 8.65626 0.75 7.5 0.75C6.34374 0.75 5.36719 1.14843 4.57031 1.94531C3.77343 2.74219 3.375 3.71874 3.375 4.875ZM13.75 15.75C14.0261 15.75 14.25 15.5261 14.25 15.25V7.5C14.25 7.22386 14.0261 7 13.75 7H1.25C0.973857 7 0.75 7.22386 0.75 7.5V15.25C0.75 15.5261 0.973858 15.75 1.25 15.75H13.75Z" fill="#9EAEFF"/>
</svg>
