<svg width="15" height="10" viewBox="0 0 15 10" fill="none" xmlns="http://www.w3.org/2000/svg">
<path fill-rule="evenodd" clip-rule="evenodd" d="M0 1C0 0.447715 0.447715 0 1 0H14C14.5523 0 15 0.447715 15 1V9C15 9.55228 14.5523 10 14 10H1C0.447715 10 0 9.55229 0 9V1ZM7.19727 5.23845C7.37615 5.37453 7.62385 5.37453 7.80273 5.23845L13.8672 0.625H1.13281L7.19727 5.23845ZM0.625 8.875C0.625 9.15114 0.848858 9.375 1.125 9.375H13.875C14.1511 9.375 14.375 9.15114 14.375 8.875V1.01562L9.88281 4.45312L12.5391 7.46094L12.4609 7.53906L9.375 4.80469L7.80525 6.0147C7.62537 6.15336 7.37463 6.15336 7.19475 6.0147L5.625 4.80469L2.53906 7.53906L2.46094 7.46094L5.11719 4.45312L0.625 1.01562V8.875Z" fill="#A9B2E1"/>
</svg>
