<svg width="15px" height="15px" viewBox="0 0 15 15" version="1.1" xmlns="http://www.w3.org/2000/svg" xmlns:xlink="http://www.w3.org/1999/xlink">
    <defs>
        <linearGradient x1="0%" y1="100%" x2="100%" y2="0%" id="linearGradient-1">
            <stop stop-color="#6673B4" offset="0%"></stop>
            <stop stop-color="#9EAEFF" offset="100%"></stop>
        </linearGradient>
    </defs>
    <g id="Symbols" stroke="none" stroke-width="1" fill="none" fill-rule="evenodd">
        <g id="tab-menu-m" transform="translate(-31.000000, -15.000000)" fill="url(#linearGradient-1)">
            <path d="M31,18.75 L31,15 L34.75,15 L34.75,18.75 L31,18.75 Z M36.625,30 L36.625,26.25 L40.375,26.25 L40.375,30 L36.625,30 Z M31,30 L31,26.25 L34.75,26.25 L34.75,30 L31,30 Z M31,24.375 L31,20.625 L34.75,20.625 L34.75,24.375 L31,24.375 Z M36.625,24.375 L36.625,20.625 L40.375,20.625 L40.375,24.375 L36.625,24.375 Z M42.25,15 L46,15 L46,18.75 L42.25,18.75 L42.25,15 Z M36.625,18.75 L36.625,15 L40.375,15 L40.375,18.75 L36.625,18.75 Z M42.25,24.375 L42.25,20.625 L46,20.625 L46,24.375 L42.25,24.375 Z M42.25,30 L42.25,26.25 L46,26.25 L46,30 L42.25,30 Z" id="ion-android-apps---Ionicons"></path>
        </g>
    </g>
</svg>