<svg width="13px" height="13px" viewBox="0 0 13 13" version="1.1" xmlns="http://www.w3.org/2000/svg" xmlns:xlink="http://www.w3.org/1999/xlink">
    <g id="Docs" stroke="none" stroke-width="1" fill="none" fill-rule="evenodd">
        <path d="M8.304,8.664 L8.304,1.632 L4.104,1.632 L3.432,12.36 L1.968,12.36 L2.712,1.632 C1.73599512,1.632 0.9280032,1.7119992 0.288,1.872 L0,1.944 L0,0.696 C0.92800464,0.47199888 2.04799344,0.36 3.36,0.36 L8.904,0.36 C9.91200504,0.36 10.8639955,0.26400096 11.76,0.072 L12.168,0 L12.168,1.248 C11.7039977,1.44000096 10.8880058,1.55199984 9.72,1.584 L9.72,8.664 C9.72,9.68800512 9.86799852,10.3599984 10.164,10.68 C10.4600015,11.0000016 11.0479956,11.16 11.928,11.16 L11.928,12.432 C10.4719927,12.432 9.5040024,12.1840025 9.024,11.688 C8.5439976,11.1919975 8.304,10.1840076 8.304,8.664 Z" id="π" fill="#FFFFFF"></path>
    </g>
</svg>