<svg width="15px" height="15px" viewBox="0 0 15 15" version="1.1" xmlns="http://www.w3.org/2000/svg" xmlns:xlink="http://www.w3.org/1999/xlink">
    <desc>Created with sketchtool.</desc>
    <defs>
        <linearGradient x1="0%" y1="100%" x2="100%" y2="0%" id="linearGradient-1">
            <stop stop-color="#6673B4" offset="0%"></stop>
            <stop stop-color="#9EAEFF" offset="100%"></stop>
        </linearGradient>
    </defs>
    <g id="Symbols" stroke="none" stroke-width="1" fill="none" fill-rule="evenodd">
        <g id="tab-menu-m" transform="translate(-331.000000, -15.000000)" fill="url(#linearGradient-1)">
            <path d="M346,20.3125 C345.036454,20.8854195 344.554688,21.6145789 344.554688,22.5 C344.554688,23.3854211 345.036454,24.1145805 346,24.6875 C345.869791,25.1041687 345.66146,25.5989555 345.375,26.171875 C344.489579,25.9635406 343.682295,26.2239547 342.953125,26.953125 C342.30208,27.6041699 342.093749,28.4114535 342.328125,29.375 C341.755205,29.6614598 341.260419,29.869791 340.84375,30 C340.27083,29.0364535 339.489588,28.5546875 338.5,28.5546875 C337.510412,28.5546875 336.72917,29.0364535 336.15625,30 C335.687498,29.8437492 335.17969,29.635418 334.632812,29.375 C334.867189,28.3854117 334.671878,27.5781281 334.046875,26.953125 C333.421872,26.3281219 332.614588,26.1328113 331.625,26.3671875 C331.364582,25.8203098 331.156251,25.3125023 331,24.84375 C331.963546,24.2708305 332.445312,23.4895883 332.445312,22.5 C332.445312,21.6145789 331.963546,20.8854195 331,20.3125 C331.182293,19.7395805 331.390624,19.2447937 331.625,18.828125 C332.510421,19.0364594 333.317705,18.7760453 334.046875,18.046875 C334.671878,17.4218719 334.867189,16.6145883 334.632812,15.625 C335.17969,15.364582 335.687498,15.1562508 336.15625,15 C336.72917,15.9635465 337.510412,16.4453125 338.5,16.4453125 C339.489588,16.4453125 340.27083,15.9635465 340.84375,15 C341.312502,15.1562508 341.82031,15.364582 342.367188,15.625 C342.132811,16.6145883 342.328122,17.4218719 342.953125,18.046875 C343.682295,18.7760453 344.489579,19.0364594 345.375,18.828125 C345.66146,19.4010445 345.869791,19.8958313 346,20.3125 Z M335.804688,25.1953125 C336.5599,25.9505246 337.458328,26.328125 338.5,26.328125 C339.541672,26.328125 340.4401,25.9505246 341.195312,25.1953125 C341.950525,24.4401004 342.328125,23.5416719 342.328125,22.5 C342.328125,21.4583281 341.950525,20.5598996 341.195312,19.8046875 C340.4401,19.0494754 339.541672,18.671875 338.5,18.671875 C337.458328,18.671875 336.5599,19.0494754 335.804688,19.8046875 C335.049475,20.5598996 334.671875,21.4583281 334.671875,22.5 C334.671875,23.5416719 335.049475,24.4401004 335.804688,25.1953125 Z" id="ion-gear-a---Ionicons"></path>
        </g>
    </g>
</svg>