<svg width="18px" height="15px" viewBox="0 0 18 15" version="1.1" xmlns="http://www.w3.org/2000/svg" xmlns:xlink="http://www.w3.org/1999/xlink">
    <defs>
        <linearGradient x1="0%" y1="100%" x2="100%" y2="0%" id="linearGradient-1">
            <stop stop-color="#6673B4" offset="0%"></stop>
            <stop stop-color="#9EAEFF" offset="100%"></stop>
        </linearGradient>
    </defs>
    <g id="Symbols" stroke="none" stroke-width="1" fill="none" fill-rule="evenodd">
        <g id="tab-menu-m" transform="translate(-105.000000, -15.000000)" fill="url(#linearGradient-1)">
            <path d="M120.351562,25.1953125 C121.679694,25.6901066 122.369791,26.1197898 122.421875,26.484375 L122.5,30 L118.671875,30 C118.671875,28.1510324 118.658854,27.1484383 118.632812,26.9921875 C118.606771,26.7838531 118.574219,26.614584 118.535156,26.484375 C118.496094,26.354166 118.307293,26.1458348 117.96875,25.859375 C117.630207,25.5729152 117.13542,25.2994805 116.484375,25.0390625 C116.40625,25.0130207 116.282553,24.9674482 116.113281,24.9023438 C115.94401,24.8372393 115.820313,24.7916668 115.742188,24.765625 C115.846355,24.7135414 115.9375,24.6614586 116.015625,24.609375 C116.09375,24.5572914 116.158854,24.5117189 116.210938,24.4726562 C116.263021,24.4335936 116.295573,24.3750004 116.308594,24.296875 C116.321615,24.2187496 116.328125,24.1601564 116.328125,24.1210938 L116.328125,23.671875 C116.328125,23.4374988 116.250001,23.1966158 116.09375,22.9492188 C115.937499,22.7018217 115.820313,22.3307316 115.742188,21.8359375 C115.716146,21.6796867 115.670573,21.536459 115.605469,21.40625 C115.540364,21.276041 115.46875,21.0546891 115.390625,20.7421875 C115.338541,20.6119785 115.332031,20.4687508 115.371094,20.3125 C115.410156,20.1562492 115.429688,20.0651043 115.429688,20.0390625 C115.429688,19.9609371 115.416667,19.8307301 115.390625,19.6484375 C115.364583,19.4661449 115.351562,19.3098965 115.351562,19.1796875 C115.325521,18.7630188 115.49479,18.3203148 115.859375,17.8515625 C116.22396,17.3828102 116.796871,17.1484375 117.578125,17.1484375 C118.359379,17.1484375 118.9388,17.3893205 119.316406,17.8710938 C119.694012,18.352867 119.869792,18.7890605 119.84375,19.1796875 C119.84375,19.3098965 119.830729,19.4661449 119.804688,19.6484375 C119.778646,19.8307301 119.765625,19.9609371 119.765625,20.0390625 C119.765625,20.0911461 119.785156,20.1757807 119.824219,20.2929688 C119.863281,20.4101568 119.856771,20.5598949 119.804688,20.7421875 C119.726562,21.0546891 119.654948,21.276041 119.589844,21.40625 C119.524739,21.536459 119.479167,21.6796867 119.453125,21.8359375 C119.375,22.3307316 119.251303,22.708332 119.082031,22.96875 C118.91276,23.229168 118.828125,23.4635406 118.828125,23.671875 C118.828125,24.2187527 118.893229,24.5442703 119.023438,24.6484375 C119.075521,24.6744793 119.518225,24.8567691 120.351562,25.1953125 Z M117.695312,30 L105,30 C105,28.3072832 105.026041,27.3046891 105.078125,26.9921875 C105.182292,26.5234352 106.080721,25.9635449 107.773438,25.3125 C108.815109,24.921873 109.401041,24.6549486 109.53125,24.5117188 C109.661459,24.3684889 109.726562,23.9192746 109.726562,23.1640625 C109.726562,22.9036445 109.622397,22.6497408 109.414062,22.4023438 C109.205728,22.1549467 109.04948,21.7057324 108.945312,21.0546875 C108.919271,20.8463531 108.860678,20.6640633 108.769531,20.5078125 C108.678385,20.3515617 108.59375,20.0651062 108.515625,19.6484375 C108.463541,19.4401031 108.457031,19.2513029 108.496094,19.0820312 C108.535156,18.9127596 108.554688,18.8020836 108.554688,18.75 C108.502604,18.3854148 108.463542,18.0078145 108.4375,17.6171875 C108.385416,17.0963516 108.600258,16.529951 109.082031,15.9179688 C109.563804,15.3059865 110.312495,15 111.328125,15 C112.343755,15 113.098956,15.3124969 113.59375,15.9375 C114.088544,16.5625031 114.309896,17.1223934 114.257812,17.6171875 C114.231771,18.0078145 114.192709,18.3854148 114.140625,18.75 C114.140625,18.8020836 114.166666,18.9062492 114.21875,19.0625 C114.270834,19.2187508 114.270834,19.4140613 114.21875,19.6484375 C114.140625,20.0651062 114.04948,20.3515617 113.945312,20.5078125 C113.841145,20.6640633 113.776042,20.8463531 113.75,21.0546875 C113.645833,21.7057324 113.489584,22.1549467 113.28125,22.4023438 C113.072916,22.6497408 112.96875,22.9036445 112.96875,23.1640625 L112.96875,23.9453125 C112.96875,24.0494797 113.007812,24.1927074 113.085938,24.375 C113.164063,24.5572926 113.281249,24.6809893 113.4375,24.7460938 C113.593751,24.8111982 113.841144,24.9088535 114.179688,25.0390625 C114.257813,25.0651043 114.505206,25.1562492 114.921875,25.3125 C116.614592,25.9635449 117.51302,26.5234352 117.617188,26.9921875 C117.669271,27.3046891 117.695312,27.9166621 117.695312,28.828125 L117.695312,30 Z" id="ion-person-stalker---Ionicons"></path>
        </g>
    </g>
</svg>